<svg width="25" height="25" viewBox="0 0 25 25" fill="none" xmlns="http://www.w3.org/2000/svg">
<path d="M2.60421 12.5208C2.60008 10.5632 3.17669 8.64827 4.26109 7.0184C5.34549 5.38852 6.88894 4.1169 8.69619 3.36441C10.5034 2.61191 12.4933 2.41235 14.414 2.79098C16.3347 3.16961 18.0999 4.10942 19.4864 5.49149C20.8728 6.87357 21.8182 8.63583 22.2029 10.5553C22.5876 12.4748 22.3943 14.4653 21.6476 16.2749C20.9008 18.0845 19.634 19.632 18.0076 20.7215C16.3812 21.8111 14.4681 22.3937 12.5105 22.3958C9.88773 22.3986 7.37117 21.36 5.51368 19.5084C3.6562 17.6568 2.60973 15.1435 2.60421 12.5208V12.5208Z" stroke="black" stroke-width="2" stroke-linecap="round" stroke-linejoin="round"/>
<path d="M11.6102 14.7517V14.2613C11.6102 13.7461 11.6932 13.3152 11.8593 12.9684C12.0253 12.6217 12.3233 12.2601 12.7531 11.8836C13.1829 11.5071 13.4857 11.1901 13.6615 10.9325C13.8374 10.665 13.9253 10.348 13.9253 9.98142C13.9253 9.60495 13.8129 9.31764 13.5883 9.1195C13.3636 8.92135 13.0412 8.82228 12.6212 8.82228C12.25 8.82228 11.8935 8.88172 11.5516 9.00061C11.2097 9.1195 10.8629 9.27801 10.5112 9.47615L9.89581 8.12383C10.3159 7.86624 10.7603 7.66314 11.2292 7.51454C11.6981 7.36593 12.206 7.29163 12.7531 7.29163C13.6713 7.29163 14.3795 7.52444 14.8777 7.99008C15.3759 8.45572 15.625 9.08482 15.625 9.87739C15.625 10.3034 15.5664 10.67 15.4491 10.9771C15.3319 11.2743 15.1561 11.5567 14.9217 11.8241C14.6872 12.0916 14.4039 12.374 14.0718 12.6712C13.7983 12.909 13.5932 13.117 13.4564 13.2954C13.3196 13.4638 13.222 13.6322 13.1633 13.8006C13.1145 13.969 13.0901 14.1672 13.0901 14.3951V14.7517H11.6102ZM11.3171 17.0997C11.3171 16.7034 11.4148 16.4161 11.6102 16.2378C11.8153 16.0496 12.0791 15.9554 12.4014 15.9554C12.714 15.9554 12.968 16.0446 13.1633 16.2229C13.3685 16.4013 13.471 16.6935 13.471 17.0997C13.471 17.496 13.3685 17.7833 13.1633 17.9616C12.9582 18.14 12.7042 18.2291 12.4014 18.2291C12.0888 18.2291 11.83 18.14 11.6248 17.9616C11.4197 17.7734 11.3171 17.4861 11.3171 17.0997Z" fill="black"/>
</svg>
