<?xml version="1.0" encoding="UTF-8"?><svg id="Layer_1" xmlns="http://www.w3.org/2000/svg" xmlns:xlink="http://www.w3.org/1999/xlink" viewBox="0 0 151.6 284.37"><defs><style>.cls-1,.cls-2,.cls-3,.cls-4{fill:none;}.cls-2{stroke-width:2.6px;}.cls-2,.cls-3,.cls-5,.cls-4{stroke:#000;stroke-linecap:round;stroke-linejoin:round;}.cls-3{stroke-width:2.81px;}.cls-5{stroke-width:4.07px;}.cls-5,.cls-6{fill:#ffd2b3;}.cls-7{fill:url(#linear-gradient-2);}.cls-8{fill:url(#linear-gradient);}.cls-9{fill:#b6a597;}.cls-10{fill:#fff;}.cls-4{stroke-width:1.46px;}.cls-11{fill:#fee8a6;}.cls-12{fill:#ffbb9e;}.cls-13{fill:#907662;}</style><linearGradient id="linear-gradient" x1="34.18" y1="104.25" x2="66.62" y2="104.25" gradientUnits="userSpaceOnUse"><stop offset="0" stop-color="#907662" stop-opacity="0"/><stop offset=".07" stop-color="#907662" stop-opacity=".14"/><stop offset=".33" stop-color="#907662" stop-opacity=".6"/><stop offset=".52" stop-color="#907662" stop-opacity=".89"/><stop offset=".62" stop-color="#907662"/></linearGradient><linearGradient id="linear-gradient-2" x1="-9637.83" y1="104.25" x2="-9605.39" y2="104.25" gradientTransform="translate(-9514.18) rotate(-180) scale(1 -1)" xlink:href="#linear-gradient"/></defs><path d="M107.79,9.63c4.64,0,8.46.83,10.5,2.19-2.01-.32-4.01-.47-5.96-.47-4.97,0-9.66.92-13.63,2.08,1.33-.11,2.61-.16,3.84-.16,16.83,0,24.04,9.61,24.04,9.61-5.7-4.56-12.81-5.96-19.07-5.96s-11.89,1.46-14.1,2.51c2.99-.65,5.96-.95,8.83-.95,9.28,0,17.52,3.06,22.27,6.94,6.22,5.07,13.13,8.06,13.13,8.06,0,0-.68,1.52-3.48,1.52-.47,0-.99-.04-1.59-.14,11.06,6.68,11.75,26.73,8.99,31.79,2.3,14.51-5.3,20.97-5.3,20.97,1.38-8.75-1.33-16.16-2.71-20.07-.46,2.76.87,7.17-3.28,13.16,1.38-7.83-2.3-15.67-8.75-19.58,2.07,7.37,1.61,17.05-2.07,21.43,1.15-11.52-4.38-20.5-12.67-26.96,4.61,7.14,6.22,20.73.46,26.49,3-7.6.92-15.21-7.14-23.5,6.68,9.22,5.53,21.89.46,25.11,5.3-13.59-11.52-24.88-14.05-26.03-.81.23-3.17.52-5.76.52s-5.41-.29-7.14-1.21c-3.69,1.84-18.43,13.13-22.58,18.66,1.15-9.68,8.52-16.82,12.9-20.27-3.2.58-6.07.8-8.65.8-5.61,0-9.85-1.01-13-1.49-11.06,6.68-11.52,23.5-7.37,28.57-7.14-.46-10.37-6.68-12.21-13.13-.23,3.46.46,8.29-1.61,14.05-.92-5.53-3.23-6.22-6.68-11.06-3.46-4.84-3-11.52.69-16.82-1.47,1.47-5.31,1.62-6.78,1.62-.37,0-.59,0-.59,0,0,0,3.23-2.53,6.91-8.75s2.53-13.78,8.41-20.27c6.57-7.26,14.86-10.14,14.86-10.14-5.53-2.07-5.99-5.76-5.99-5.76,0,0,4.75,1.4,9.88,1.4,2.37,0,4.83-.3,6.94-1.17,2.27-.94,5.99-1.45,10.18-1.45,8.17,0,18.12,1.95,22.54,6.52,8.13-6.24,18.45-8.64,26.36-8.64M107.79,5.56c-9.19,0-18.74,2.81-26.19,7.62-6-4-15.29-5.49-22.71-5.49-2.79,0-8.03.23-11.73,1.76-1.38.57-3.19.86-5.38.86-4.45,0-8.69-1.22-8.74-1.24-.38-.11-.76-.16-1.14-.16-.95,0-1.89.34-2.64.97-1.04.89-1.57,2.24-1.4,3.6.05.36.37,2.4,2.13,4.6-3.04,1.8-6.7,4.44-9.98,8.06-4.12,4.56-5.34,9.45-6.4,13.76-.65,2.62-1.26,5.1-2.49,7.17-3.18,5.36-5.93,7.63-5.95,7.65-1.34,1.05-1.86,2.81-1.34,4.43.52,1.62,2.01,2.73,3.71,2.81,0,0,.28.01.76.01h0c-.93,4.77-.01,9.59,2.78,13.49,1.17,1.63,2.22,2.85,3.07,3.83,1.74,2,2.45,2.83,2.91,5.54.3,1.82,1.8,3.21,3.64,3.38.12.01.25.02.37.02,1.7,0,3.24-1.06,3.82-2.69.25-.7.47-1.38.65-2.06,2.53,2.31,5.56,3.59,9.08,3.82.09,0,.18,0,.26,0,1.52,0,2.92-.85,3.62-2.21.74-1.44.56-3.18-.47-4.43-1.01-1.24-2.04-5.29-1.16-10.41.5-2.91,1.98-8.04,6.31-11.31.2.03.4.07.6.11,2.6.45,5.75,1,9.62,1.14-3.07,4-5.74,9.04-6.44,14.97-.22,1.83.82,3.57,2.53,4.25.49.2,1,.29,1.51.29,1.25,0,2.47-.58,3.25-1.63,3.35-4.47,14.99-13.55,19.71-16.61,1.84.52,4.1.78,6.76.78,1.76,0,3.6-.12,5.05-.32,1.69,1.08,4.93,3.5,7.59,6.73,3.91,4.75,5.05,9.31,3.39,13.56-.64,1.64-.15,3.5,1.21,4.62.75.61,1.66.92,2.58.92.76,0,1.51-.21,2.18-.64.75-.48,1.45-1.08,2.08-1.77.06.05.12.09.19.13.68.45,1.46.67,2.23.67,1.05,0,2.09-.41,2.88-1.19,2.84-2.84,4.3-6.8,4.75-11.07.65,2.62.83,5.38.54,8.25-.18,1.77.82,3.46,2.46,4.15.51.22,1.05.32,1.58.32,1.17,0,2.32-.51,3.11-1.45,2.03-2.42,3.27-5.77,3.85-9.44.15,1.4.12,2.84-.14,4.27-.33,1.88.69,3.74,2.46,4.47.5.21,1.03.31,1.54.31.81,0,1.6-.24,2.28-.7-.05.95-.14,1.92-.3,2.91-.27,1.68.54,3.35,2.02,4.18.62.35,1.31.52,1.99.52.94,0,1.88-.33,2.63-.97.37-.32,8.89-7.75,6.85-23.52,2.37-6.57,1.7-21.37-5.36-30.62.43-.48.76-.98.97-1.46.44-.99.47-2.12.07-3.13-.39-1.01-1.18-1.82-2.17-2.25-.05-.02-4.34-1.91-9.01-5.11.64-1.33.51-2.95-.42-4.19-.19-.25-2.74-3.57-8.05-6.54.11-.19.21-.39.29-.6.7-1.78.06-3.81-1.53-4.87-3.75-2.5-9.6-2.87-12.76-2.87h0Z"/><path d="M78.92,35.2c19.6,0,37.73,4.33,43.56,8.41,4.96,3.46,14.17,18.2,14.4,35.94.23,17.74,1.02,30.8,1.72,34.64H19.23c.7-3.83,1.49-16.9,1.72-34.64.23-17.74,9.45-32.49,14.4-35.94,5.84-4.07,23.96-8.41,43.56-8.41M78.92,31.14h0c-18.7,0-38.43,3.93-45.89,9.14-6.61,4.61-15.9,20.8-16.14,39.22-.23,17.6-1,30.4-1.65,33.96-.22,1.19.1,2.41.88,3.33.77.93,1.92,1.46,3.12,1.46h119.37c1.21,0,2.35-.54,3.12-1.46.77-.93,1.09-2.15.88-3.33-.65-3.56-1.43-16.36-1.65-33.96-.24-18.42-9.53-34.62-16.14-39.22-7.46-5.21-27.19-9.14-45.89-9.14h0Z"/><path d="M133.43,125.75h0M133.43,125.75c-.12,6.11,4.26,9.9,2.53,16.24-1.73,6.33-3.8,13.59.35,16.59-.43.15-.87.21-1.29.21-1.17,0-2.17-.44-2.17-.44,0,4.26,5.29,7.6,4.49,13.36-.81,5.76-3.8,7.84-4.26,9.91s.35,7.1-1.04,10.03c-.26-.7-.87-2.01-1.56-2.01-.2,0-.41.11-.62.39-.92,1.21-2.19,2.73-2.42,7.68,0,0-1.15-.51-1.38-1.62,0,0-2.42,1.11-4.03,6.27-1.62,5.16-5.19,15.77-13.25,22.64-1.84,3.44-4.95,5.26-7.6,6.16-1.03,1.92-7.26,6.67-12.1,8.49-4.84,1.82-7.25,3.04-7.72,4.65-.46,1.62-1.15,3.94.23,6.57,1.38,2.63,5.81,9.43,4.25,16.15,1.84,2.32-.59,5.36-1.88,6.44-1.23-2.26-2.09-3.39-4.23-4.37-1.34,3.24-3.82,4.91-5.1,5.63.46-2.22-.34-4.25-1.38-6.37-1.03-2.12-2.65-6.68-.81-9-.69-3.64,2.42-5.86,3.8-8.49,1.38-2.63.69-4.95.23-6.57-.46-1.61-2.88-2.83-7.72-4.65-4.84-1.82-11.06-6.57-12.1-8.49-2.65-.91-5.76-2.73-7.6-6.16-8.06-6.88-11.63-17.49-13.25-22.64-1.61-5.16-4.03-6.27-4.03-6.27-.23,1.11-1.38,1.62-1.38,1.62-.23-4.95-1.5-6.47-2.42-7.68-.21-.28-.42-.39-.62-.39-.69,0-1.3,1.3-1.56,2.01-1.39-2.93-.58-7.96-1.04-10.03s-3.46-4.15-4.26-9.91c-.81-5.76,4.49-9.1,4.49-13.36,0,0-1,.44-2.17.44-.42,0-.86-.06-1.29-.21,4.15-2.99,2.07-10.25.35-16.59-1.73-6.34,2.65-10.14,2.53-16.24h109.02M133.43,121.68H24.41c-1.09,0-2.14.44-2.9,1.22-.76.78-1.18,1.83-1.16,2.93.04,1.89-.57,3.59-1.27,5.56-1.09,3.05-2.44,6.84-1.12,11.68l.1.35c1.01,3.7,2.88,10.58,1.1,11.86-1.22.88-1.86,2.37-1.65,3.87.16,1.14.79,2.14,1.72,2.77-1.5,2.51-3.38,5.88-2.75,10.35.65,4.62,2.45,7.38,3.65,9.21.24.37.57.87.68,1.1.06.42.06,1.48.06,2.26,0,2.62,0,5.87,1.26,8.56.67,1.42,2.11,2.33,3.67,2.33.06,0,.11,0,.17,0,.05,0,.11,0,.16-.01.1.6.17,1.31.21,2.2.06,1.34.78,2.56,1.92,3.27.65.41,1.4.61,2.14.61.27,0,.54-.03.81-.08.24.51.49,1.13.72,1.88,2.18,6.97,5.99,16.97,13.94,24.04,2.23,3.72,5.5,5.79,8.24,6.93,2.78,3.26,8.99,7.33,13.22,8.92,3.46,1.3,4.84,2.02,5.36,2.41.34,1.24.48,2.12-.04,3.11-.26.49-.7,1.08-1.18,1.71-1.33,1.77-3.26,4.32-3.19,7.81-.93,2.15-1.46,5.93,1.31,11.64.95,1.95,1.23,2.93,1.06,3.76-.32,1.56.29,3.17,1.58,4.11.71.52,1.56.79,2.4.79.68,0,1.37-.17,1.99-.52,1.42-.8,2.68-1.77,3.76-2.88,0,0,0,.02.01.03.58,1.07,1.62,1.82,2.82,2.05.25.05.5.07.75.07.95,0,1.88-.33,2.62-.95,3.85-3.24,4.62-7.22,3.5-10.2.91-6.92-2.63-13.3-4.39-16.47-.19-.35-.37-.66-.5-.92-.53-1-.39-1.87-.04-3.12.52-.39,1.91-1.1,5.37-2.41,4.23-1.59,10.44-5.66,13.21-8.92,2.74-1.14,6.01-3.21,8.24-6.93,7.95-7.08,11.75-17.07,13.94-24.04.24-.75.48-1.37.72-1.88.27.05.54.08.81.08.75,0,1.49-.21,2.14-.61,1.14-.71,1.86-1.93,1.92-3.27.04-.89.11-1.6.21-2.2.05,0,.11,0,.16.01.06,0,.11,0,.17,0,1.57,0,3-.9,3.67-2.33,1.27-2.69,1.27-5.94,1.26-8.56,0-.78,0-1.83.06-2.26.11-.23.44-.73.68-1.1,1.2-1.82,3.01-4.58,3.65-9.21.62-4.46-1.26-7.84-2.75-10.35.92-.64,1.55-1.63,1.72-2.77.21-1.5-.42-2.98-1.65-3.87-1.79-1.29.09-8.17,1.1-11.86l.1-.36c1.32-4.83-.03-8.63-1.12-11.67-.69-1.93-1.28-3.6-1.27-5.44,0-.07,0-.13,0-.2,0-2.25-1.82-4.07-4.06-4.07h0ZM133.43,129.81h0,0Z"/><path class="cls-5" d="M31.01,123.09s-6.73-8.9-11.78-8.9-1.68,6.73-.48,9.86-.72,21.64,12.02,27.89c12.74,6.25.24-28.86.24-28.86Z"/><path class="cls-5" d="M126.82,123.09s6.73-8.9,11.78-8.9,1.68,6.73.48,9.86c-1.2,3.13.72,21.64-12.02,27.89-12.74,6.25-.24-28.86-.24-28.86Z"/><path class="cls-6" d="M78.92,37.26c-35.16,0-54.63,10.57-54.63,30.28,0,0-1.92,26.69-.96,36.07.96,9.38,2.65,56.27,7.94,74.3,5.12,17.47,25.49,34.87,47.66,34.87,22.17,0,42.54-17.41,47.66-34.87s6.97-64.92,7.94-74.3c.96-9.38-.96-36.07-.96-36.07,0-19.71-19.48-30.28-54.63-30.28Z"/><ellipse class="cls-12" cx="78.92" cy="173.53" rx="11.17" ry="4.58"/><path class="cls-13" d="M78.92,35.2c-19.6,0-37.73,4.33-43.56,8.41-4.96,3.46-14.17,18.2-14.4,35.94-.23,17.74-1.02,30.8-1.72,34.64,0,0,5.06,5.45,5.18,11.56.12,6.11-4.26,9.9-2.53,16.24,1.73,6.33,3.8,13.59-.35,16.59,1.62.58,3.46-.23,3.46-.23,0,4.26-5.29,7.6-4.49,13.36.81,5.76,3.8,7.84,4.26,9.91s-.35,7.1,1.04,10.03c.34-.91,1.26-2.83,2.19-1.62.92,1.21,2.19,2.73,2.42,7.68,0,0,1.15-.51,1.38-1.62,0,0,2.42,1.11,4.03,6.27,1.62,5.16,5.19,15.77,13.25,22.64,1.84,3.44,4.95,5.26,7.6,6.16,1.03,1.92,7.26,6.67,12.1,8.49,4.84,1.82,7.25,3.04,7.72,4.65.46,1.62,1.15,3.94-.23,6.57-1.38,2.63-4.49,4.85-3.8,8.49-1.84,2.32-.23,6.87.81,9,1.04,2.12,1.84,4.14,1.38,6.37,1.28-.72,3.76-2.39,5.1-5.63,2.14.99,3,2.12,4.23,4.37,1.29-1.08,3.72-4.12,1.88-6.44,1.55-6.72-2.87-13.52-4.25-16.15-1.38-2.63-.69-4.95-.23-6.57.46-1.61,2.88-2.83,7.72-4.65,4.84-1.82,11.06-6.57,12.1-8.49,2.65-.91,5.76-2.73,7.6-6.16,8.06-6.88,11.63-17.49,13.25-22.64,1.61-5.16,4.03-6.27,4.03-6.27.23,1.11,1.38,1.62,1.38,1.62.23-4.95,1.5-6.47,2.42-7.68.92-1.21,1.84.71,2.19,1.62,1.39-2.93.58-7.96,1.04-10.03.46-2.07,3.46-4.15,4.26-9.91.81-5.76-4.49-9.1-4.49-13.36,0,0,1.84.81,3.46.23-4.15-2.99-2.07-10.25-.35-16.59,1.73-6.34-2.65-10.14-2.53-16.24.11-6.11,5.18-11.56,5.18-11.56-.7-3.83-1.49-16.9-1.72-34.64-.23-17.74-9.45-32.49-14.4-35.94-5.84-4.07-23.96-8.41-43.56-8.41ZM78.92,180.26c-1.21,2.38-2.88,2.01-4.23.5-.17,1.73-2.59.69-3.97-.35-1.21,2.07-3.28-.52-3.28-.52-.17,6.03,4.54,8.65,4.82,8.81-.24-.08-3.13-1.03-7.76-1.2-4.84-.18-5.87,2.24-8.81-.69-2.94-2.94-.17-12.1-.17-12.1,0,0,.35,1.55,1.73,2.42,0,0,.52-1.55,1.73-2.42.87,1.38,1.73,2.76,1.73,2.76,0,0,.34-2.59,1.55-3.28.35,1.04,1.21,2.24,1.21,2.24,0,0,.52-2.07,1.55-2.76.69,1.56,1.04,2.59,2.07,3.28.17-2.07,1.9-3.46,1.9-3.46,0,0,.86,1.73,1.21,2.94,1.03.35,2.24-2.42,2.42-3.11.35,1.73,1.04,2.59,1.9,3.28,0,0-.17-2.25.35-2.94,1.03,1.38,1.9,2.94,1.9,2.94,0,0,.62-2.33,2.15-3.16,1.53.83,2.15,3.16,2.15,3.16,0,0,.86-1.56,1.9-2.94.52.69.35,2.94.35,2.94.86-.69,1.55-1.56,1.9-3.28.17.69,1.38,3.46,2.42,3.11.35-1.21,1.21-2.94,1.21-2.94,0,0,1.73,1.38,1.9,3.46,1.03-.69,1.38-1.73,2.07-3.28,1.03.69,1.55,2.76,1.55,2.76,0,0,.86-1.21,1.21-2.24,1.21.69,1.55,3.28,1.55,3.28,0,0,.86-1.38,1.73-2.76,1.21.86,1.73,2.42,1.73,2.42,1.38-.86,1.73-2.42,1.73-2.42,0,0,2.76,9.16-.17,12.1-2.94,2.94-3.97.51-8.81.69-4.63.17-7.52,1.12-7.76,1.2.29-.16,4.99-2.77,4.82-8.81,0,0-2.07,2.59-3.28.52-1.38,1.04-3.8,2.07-3.97.35-1.35,1.51-3.02,1.88-4.23-.5ZM78.92,155.58c-2.67,0-4.92-.24-7.05-1.61-4.72,0-8.64,1.62-11.29,3.11-2.65,1.5-13.83,8.06-15.44,13.71,0,0-3.47,3.23-4.71,1.92-1.25-1.3-1.3-3.74-1.37-5.1-.83,1.9-.35,5.33-1.42,3.97-1.07-1.37-2.01-5.16-2.49-7.77-.42,2.31,1.13,7-.11,5.75-1.25-1.25-1.66-5.57-1.72-8.95-.83,1.78-.18,5.63-.77,4.45-.59-1.18-.83-4.8-.77-8.18-.71.89-.42,4.74-.89,3.85-.47-.89-.65-4.62-.35-7.76-.65.95-.95,3.73-.95,3.73-.77-2.07-.06-10.31-1.45-15.57-1.47-5.53-1.93-15.87-1.44-20.44.48-4.57,0-12.26-.48-19-.48-6.73,5.05-9.62,3.61-21.16-1.44-11.55,2.4-29.58,2.4-29.58,1.99-8.6,22.76-13.69,46.7-13.69,23.94,0,44.72,5.08,46.7,13.69,0,0,3.85,18.04,2.4,29.58-1.44,11.54,4.09,14.42,3.61,21.16-.48,6.73-.96,14.43-.48,19,.48,4.57.02,14.91-1.44,20.44-1.39,5.26-.68,13.5-1.45,15.57,0,0-.3-2.79-.95-3.73.3,3.14.12,6.87-.35,7.76-.47.89-.18-2.96-.89-3.85.06,3.38-.18,6.99-.77,8.18-.59,1.18.06-2.67-.77-4.45-.06,3.38-.47,7.71-1.72,8.95-1.24,1.25.3-3.44-.11-5.75-.48,2.61-1.42,6.4-2.49,7.77-1.07,1.36-.6-2.07-1.42-3.97-.06,1.36-.12,3.79-1.37,5.1-1.24,1.3-4.71-1.92-4.71-1.92-1.61-5.64-12.79-12.21-15.44-13.71-2.65-1.5-6.56-3.11-11.29-3.11-2.2,1.14-4.38,1.61-7.05,1.61Z"/><path class="cls-11" d="M78.92,250.74c-1.03,0-4.43-.11-4.87-1.5-.11-.34-.08-.69-.05-1.14.03-.53.08-1.24-.15-1.66-.67-1.2-.74-2.16-.75-2.26-.02-.36.15-.7.45-.9.17-.11.37-.17.56-.17.15,0,.3.03.44.1,0,0,1.28.56,4.37.56s4.37-.56,4.38-.57c.13-.06.28-.09.42-.09.2,0,.4.06.58.18.29.2.46.54.44.89,0,.11-.08,1.07-.75,2.26-.23.42-.19,1.14-.15,1.66.03.45.05.81-.05,1.14-.44,1.39-3.84,1.5-4.87,1.5Z"/><path d="M83.72,244.11h0M83.72,244.11s-.05.8-.62,1.83c-.57,1.03-.14,2.54-.29,3-.13.41-2.1.79-3.9.79s-3.77-.38-3.9-.79c-.14-.46.29-1.97-.29-3-.57-1.03-.62-1.83-.62-1.83,0,0,1.37.66,4.81.66s4.81-.66,4.81-.66M83.76,242.05c-.3,0-.61.07-.9.23-.18.07-1.38.47-3.95.47s-3.77-.4-3.95-.47c-.29-.15-.59-.23-.89-.23-.38,0-.75.11-1.09.33-.62.39-.94,1.12-.89,1.86.01.21.11,1.33.87,2.69.08.19.05.81.03,1.1-.03.51-.06,1,.1,1.51.46,1.47,2.42,2.21,5.84,2.21s5.38-.74,5.84-2.21c.16-.52.13-1,.1-1.51-.02-.3-.06-.92.03-1.11.62-1.12.8-2.08.85-2.5.02-.1.02-.21.02-.31,0-.06,0-.12,0-.19-.05-.63-.35-1.21-.89-1.55-.34-.22-.72-.33-1.09-.33h0ZM83.72,246.14h0,0Z"/><path d="M72.26,188.69c-4.33-.29-8.45-.51-12.6.74-.68.14-1.61.21-2.47-.08-1.26-.47-2.04-1.17-2.78-2.13-1.12-1.5-1.22-3.59-1.08-5.2.23-2.62,1-5.06,2.19-7.31-.1,3.52-.74,7.28.55,10.45.2.41.48.74.83,1.02.82.69,1.23.92,2.31.74,4.33-1.1,9.13-.3,13.05,1.78h0Z"/><path d="M85.58,188.69c3.92-2.09,8.72-2.88,13.05-1.78,1.08.18,1.49-.05,2.31-.74.35-.28.63-.61.83-1.02,1.29-3.17.65-6.92.55-10.45,2.25,4.36,4.32,12.23-1.68,14.64-1.55.51-2.95-.05-4.3-.37-3.52-.79-7.11-.49-10.77-.28h0Z"/><path d="M71.87,153.97c-5.48.82-10.07,3.48-14.52,6.55-4.14,2.97-9.16,5.91-11.53,10.46,0,0-.08.17-.08.17-.72.72-1.68,1.16-2.58,1.61-.81.32-2.09.78-2.73-.06.39.29.85.19,1.23.03,1.17-.54,2.14-1.55,3.01-2.47,0,0-.2.32-.2.32,1.63-5.62,6.91-9.14,11.5-12.2,4.64-3.02,10.28-5.42,15.89-4.43h0Z"/><path d="M85.96,153.97c5.61-.99,11.25,1.4,15.89,4.43,4.59,3.06,9.88,6.58,11.51,12.2,0,0-.2-.32-.2-.32.87.92,1.84,1.92,3.01,2.47.38.16.84.26,1.23-.03-.64.83-1.92.38-2.73.06-.9-.45-1.86-.89-2.58-1.61,0,0-.08-.18-.08-.18-2.38-4.55-7.39-7.49-11.53-10.46-4.45-3.07-9.04-5.73-14.52-6.55h0Z"/><path d="M68.52,147.57c2.71.26,4.63,1.7,6.26,3.59.72.9,1.23,1.91,1.72,2.3,1.01.74,3.83.74,4.84,0,.49-.39,1-1.4,1.72-2.3,1.68-1.98,3.81-3.48,6.64-3.62,2.46-.13,2.75,3.48.29,3.74-.33.03-.65-.04-.92-.17-1.39-.54-3.36.41-4.46,1.46-1.13,1.16-2.13,2.87-4.01,3-1.75.18-3.52.31-5.12-.66-1.01-.69-1.41-1.62-2.23-2.34-1.1-1.04-3.07-2-4.46-1.46-3.21,1.1-3.69-4.02-.26-3.54h0Z"/><path d="M67.23,139.97c-.69,2.79-2.27,5.36-2.93,8.03-.03.48.03,1.2.17,1.68.57,2,2.36,2.76,4.33,3.76-3.67.86-7.35-1.6-7.01-5.7.68-3.33,2.86-5.76,5.45-7.78h0Z"/><path d="M90.6,139.97c2.59,2.01,4.77,4.45,5.45,7.78.35,4.09-3.34,6.56-7.01,5.7,2.24-1.1,4.31-2.11,4.47-4.61.01-.18.04-.71.02-.84-.66-2.67-2.24-5.24-2.93-8.03h0Z"/><path class="cls-10" d="M65.64,116.5c0-1.29-2.26-.75-5.11-2.96-2.85-2.21-10.81-3.34-16.08,1.88l.16,1.34s3.98,1.51,9.09,1.51,5.33-1.24,8.23-1.24,3.71.22,3.71-.54Z"/><path d="M64.83,116.5c-1.33-.52-3.34-1.1-4.63-2.15-4.48-3.02-11.3-2.03-15.08,1.75,0,0,.28-.8.28-.8,0,0,.06,1.36.06,1.36,0,0-.55-.7-.55-.7,4.93,1.93,10.46,2.16,15.51.44,1.46-.28,3.19-.02,4.62-.19.04,0-.05,0-.13.11-.09.14-.08.18-.08.17h0ZM66.45,116.5c-.02,1.69-2.11,1.34-3.22,1.34,0,0-1.34-.02-1.34-.02-2.17.01-4.34,1.17-6.59,1.13-3.75.15-7.38-.32-11-1.37-.25-.07-.43-.26-.49-.5-.04-.1-.37-1.38-.42-1.52-.07-.24,0-.48.13-.66,1.96-2.78,5.24-4.45,8.6-4.7,2.97-.22,6.04.54,8.52,2.22.9.72,1.84,1.43,2.94,1.86,1.04.43,2.89.7,2.87,2.24h0Z"/><path class="cls-10" d="M92.19,116.5c0-1.29,2.26-.75,5.11-2.96s10.81-3.34,16.08,1.88l-.16,1.34s-3.98,1.51-9.09,1.51-5.33-1.24-8.23-1.24-3.71.22-3.71-.54Z"/><path d="M91.38,116.5c-.08-.85.82-1.56,1.49-1.74,1.37-.45,2.6-.96,3.68-1.86,2.54-2.05,5.93-2.93,9.16-2.71,3.36.25,6.65,1.92,8.6,4.7.4.42-.13,1.41-.23,1.98,0,0-.06.2-.06.2-.07.25-.26.43-.49.5-1.85.53-3.62.92-5.46,1.14-2.77.29-5.59.48-8.34-.15-1.4-.34-2.44-.79-3.79-.75-.81,0-1.9.05-2.72.05-.5-.03-1.13,0-1.58-.55-.23-.32-.24-.6-.26-.81h0ZM93,116.5s.01-.03-.08-.17c-.09-.12-.17-.12-.13-.11,1.44.17,3.16-.09,4.62.19,5.05,1.71,10.58,1.49,15.51-.45,0,0-.55.7-.55.7l.06-1.36s.28.8.28.8c-3.78-3.79-10.6-4.77-15.08-1.75-1.29,1.05-3.3,1.63-4.63,2.15h0Z"/><path d="M64.08,105.85c-4.56.03-9.13.26-13.54,1.28-2.12.38-3.75,1.61-5.18,3.19-1.43,1.6-2.62,3.51-3.82,5.54.18-4.19,2.66-8.66,6.77-10.2,5.12-1.47,10.67-1.2,15.77.2h0Z"/><path d="M93.75,105.85c5.09-1.39,10.65-1.66,15.77-.2,4.11,1.54,6.59,6.01,6.77,10.2-1.2-2.03-2.4-3.93-3.82-5.54-1.43-1.58-3.05-2.81-5.18-3.19-4.41-1.02-8.98-1.25-13.54-1.28h0Z"/><polygon points="59.87 104.97 63.11 109.27 58.93 105.87 59.87 104.97 59.87 104.97"/><polygon points="98.9 105.87 94.72 109.27 97.96 104.97 98.9 105.87 98.9 105.87"/><polygon points="45.02 117.04 41.69 116.41 44.15 114.59 45.02 117.04 45.02 117.04"/><polygon points="113.69 114.59 116.14 116.41 112.81 117.04 113.69 114.59 113.69 114.59"/><path d="M58.97,114.57c0-.76-.19-1.48-.52-2.11-2.12-.76-5.05-1.07-7.97-.36-.46.72-.73,1.56-.73,2.48,0,1.47.69,2.77,1.76,3.61.7.06,1.43.09,2.19.09,1.73,0,2.89-.14,3.79-.33.91-.84,1.48-2.04,1.48-3.38Z"/><path d="M98.87,114.57c0-.76.19-1.48.52-2.11,2.12-.76,5.05-1.07,7.97-.36.46.72.73,1.56.73,2.48,0,1.47-.69,2.77-1.76,3.61-.7.06-1.43.09-2.19.09-1.73,0-2.89-.14-3.79-.33-.91-.84-1.48-2.04-1.48-3.38Z"/><circle class="cls-10" cx="54.36" cy="114.69" r="1.5"/><circle class="cls-10" cx="103.47" cy="114.69" r="1.5"/><path d="M69.45,112.04c4.94,5.96-3.62,13.29-8.29,16.36,3.8-4.65,9.88-9.66,8.29-16.36h0Z"/><path class="cls-1" d="M88.38,112.04c-1.84,3.46-1.38,8.06,8.29,16.36"/><path class="cls-8" d="M66.53,104.49c.62-1.52-1.98-4.05-7.52-4.58-5.55-.53-13.16-.72-14.71-.63s-4.87,1.4-8.2,5.98-1.88,4.53.92,3.18c2.8-1.35,7.86-4.34,13.84-3.86s14.95,1.69,15.67-.1Z"/><path class="cls-7" d="M91.3,104.49c-.62-1.52,1.98-4.05,7.52-4.58,5.55-.53,13.16-.72,14.71-.63s4.87,1.4,8.2,5.98,1.88,4.53-.92,3.18-7.86-4.34-13.84-3.86-14.95,1.69-15.67-.1Z"/><path d="M75.21,95.45c.8,1.57.56,3.06.39,4.55-.2,1.49-.5,2.97-1.08,4.44-.35-1.53-.42-3.04-.39-4.55.05-1.5.05-3.01,1.08-4.44,0,0-1.03,1.43,0,0Z"/><path d="M82.62,96.41c1.03,1.09,1.02,2.28,1.08,3.46.03,1.19-.04,2.38-.39,3.61-.58-1.13-.88-2.29-1.08-3.46-.18-1.17-.41-2.34.39-3.61,0,0-.8,1.27,0,0Z"/><path class="cls-4" d="M73.15,244.96s3.02,1.69,11.12,1.69"/><path class="cls-4" d="M73.15,248.81s3.98-.72,7.96-2.05"/><path d="M76.36,253.61c-.07,1.43-.11,2.91.32,4.25.44,1.34,1.41,2.4,2.17,3.69.74,1.28,1.3,2.66,1.7,4.1.25.85,1.19,5.4-.65,5.16-.43-.11-.67-.59-.49-1,.76-2.45-.16-5.56-1.21-7.92-.59-1.24-1.53-2.47-1.88-3.93-.34-1.46-.16-2.92.03-4.35h0Z"/><path d="M72,258.58c.84,1.79,1.8,3.57,2.84,5.27.98,1.73,2.13,3.65,2,5.71-.14-2.02-1.48-3.7-2.65-5.26-1.25-1.62-2.4-3.28-3.48-5.04-.52-.87.86-1.61,1.29-.68h0Z"/><path d="M86.48,267.91c-1.48-2.37-4.99-3.67-5.88-6.6,1.55,2.94,4.92,3.26,7.06,5.74.67.8-.64,1.74-1.19.85h0Z"/><path d="M79.43,251.41c-.31,2.08,1.03,4.04,2.21,5.73,1.25,1.89,2.65,3.88,2.94,6.18-.26-1.12-.8-2.13-1.43-3.06-1.88-2.94-5.43-5.27-5.14-9.19.17-1.05,1.74-.69,1.42.34h0Z"/><path d="M47.68,227.91c-3.47-9.1-4.29-18.98-3.05-28.58-.22,4.76.08,9.53.97,14.2.87,4.57,2.26,9.25,4.3,13.38.72,1.5-1.56,2.54-2.22,1.01h0Z"/><path class="cls-2" d="M56.37,233.29s-1.9-3.49.05-6.83c-3.66-2.51-4.3-7.96-3.02-12.29-3.98-3.91-1.27-8.38,0-9.91-2.71-2.37-2.23-7.41,1.91-13.3"/><path d="M85.58,188.69c-2.73.65-6.1,1.71-7.14,4.54-.12.39-.54.61-.93.49-.43-.13-.65-.64-.44-1.04,1.61-3.06,5.4-3.78,8.51-3.99h0Z"/><path d="M54.31,203.54c4.29,5.24,12.31,8.33,18.08,9.68,1.95-.62,3.82-1.89,4.51-3.85.58-1.6.44-3.96-.88-5.09,0,0,.55.2.55.2-5.32-.24-10.02-3.2-14.59-5.66-4.1-2.37-7.39-6.51-8.25-11.27-.19-1.12-.72-3.4,1.08-3.47,1.71.12,1.15,1.79,1.44,3.02.69,4.1,3.39,7.57,6.94,9.73,4.23,2.34,8.55,5.24,13.5,5.57.2.01.41.07.55.2,2.04,1.9,2.04,4.99.99,7.35-1.06,2.28-3.44,3.72-5.82,4.1-5.45-.8-10.81-2.47-15.49-5.45-1.58-1.03-3.04-2.09-4.44-3.6-.44-.47-.41-1.21.06-1.65.52-.49,1.36-.38,1.76.2h0Z"/><path d="M81.4,235.81c1.01,3.49-.6,6.71-4.11,7.8-.55.16-2.16.59-2.16-.51.03-.4.4-.63.77-.59.18,0,.61-.1.93-.23,1.03-.37,2.1-1.18,2.88-1.85,1.13-1.02,1.13-2.94.74-4.31-.23-.64.76-.96.94-.3h0Z"/><path d="M100.59,232.54c5.16-10.19,4.79-22.42,2.54-33.38-.37-1.61-.8-3.2-1.19-4.81.49,1.58,1.02,3.15,1.49,4.74,2.22,8.04,3.24,16.46,2.06,24.78-.52,3.44-1.25,6.66-2.78,9.88-.3.6-1.03.85-1.63.56-.66-.32-.88-1.16-.48-1.77h0Z"/><path d="M107.92,226.7c3.67-11.7,3.91-24.5,1.66-36.54.74,3.02,1.42,6.06,1.82,9.16.89,6.2,1.03,12.51.43,18.75-.31,3.15-.76,6.23-1.6,9.39-.17.65-.84,1.04-1.49.87-.7-.18-1.09-.95-.82-1.62h0Z"/><path d="M72.26,188.69c5.49,2.41,12.62,11.64,4.8,15.68-1.22.6-2.15-1.19-.95-1.84,6.94-2.78.26-11.42-3.85-13.84h0Z"/><path d="M79.53,200.23c7.31.3,16.29-4.01,17.23-11.96.11-1.08,1.09-1.87,2.17-1.7,1.37.17,2.08,1.85,1.28,2.96-2.35,3.66-5.34,6.6-9.11,8.58-3.65,1.9-7.44,3.01-11.5,3.81-.46.09-.91-.21-1-.68-.12-.55.37-1.08.93-1.01h0Z"/><path class="cls-3" d="M89.25,241.19c4.54-1.97,13.12-10.4,9.79-21.85,3.33-3.94,4.13-9.63.71-13.19,3.12-3.03,3.83-10.8-2.02-14.86"/><path d="M100.7,207.06c-4.57,4.19-10.08,7.01-15.77,9.3-1.9.71-3.79,1.41-5.88,1.66-2.74-.38-5.29-1.92-6.88-4.21-.28-.4.34-.83.62-.43.61,1.12,1.56,2.06,2.66,2.73.95.67,2.72,1.09,3.53,1.19,3.78-.83,7.4-2.81,10.76-4.76,3.35-2.06,6.58-4.44,9.05-7.31,1.2-1.35,3.2.52,1.91,1.81h0Z"/><path d="M79.42,217.69c-.38,2.83-2.62,4.91-5.04,6.14-2.03.23-4.11.05-6.13-.26-6.04-1.02-11.87-3.73-15.83-8.66-.42-.53-.33-1.29.19-1.71.55-.44,1.37-.32,1.77.27,2.08,3.06,5.17,5.48,8.64,7.11,3.47,1.62,7.33,2.64,11.22,2.65,1.52-.83,4.26-3.12,4.39-5.56,0-.55.86-.52.8.04h0Z"/><path d="M100.04,220.2c-2.26,2.27-4.77,4.18-7.47,5.75-2.76,1.52-5.55,3.06-8.75,3.43-3.9-.19-7.47-2.42-9.69-5.57-.39-.54.44-1.13.81-.57,1.82,3.09,5.53,5.05,8.82,5.04,5.63-1.42,10.69-5.32,14.28-9.81,1.14-1.45,3.26.37,1.99,1.72h0Z"/><path d="M84.25,228.78c.22,2.79-.73,6.1-3.32,7.49-9.11.12-18.62-2.47-25.39-8.96-.48-.47-.48-1.24,0-1.72.49-.5,1.32-.48,1.78.05,2.81,3.2,6.62,5.57,10.69,7.21,4.08,1.64,8.48,2.64,12.93,2.81l-.17.05c1.05-.74,1.8-1.82,2.2-3.03.4-1.19.52-2.55.37-3.78-.11-.62.85-.75.91-.12h0Z"/><path d="M81.3,238.79c5.15-.47,9.92-3.87,11.99-8.63-.86,2.53-2.33,4.88-4.4,6.63-2.15,1.85-4.61,3.08-7.46,3.64-.45.08-.88-.21-.96-.66-.1-.51.31-.98.82-.98h0Z"/><path d="M125.62,50.95c2.47,8.52,4.03,17.39,3.88,26.32-.06,2.82-.63,5.83-.36,8.64.14,4.47,2.54,8.19,3.41,12.56.31,1.51.17,3.2-.01,4.67-.56,5.85-1.34,11.66-1.4,17.54-1.03-5.82-.79-11.8-.63-17.68.07-1.53.09-2.78-.2-4.11-1.14-4.19-3.6-8.28-3.76-12.79-.24-2.98.32-5.99.5-8.95.46-8.74-.55-17.46-1.43-26.21h0Z"/><path d="M26.69,120.69c-.06-5.89-.84-11.69-1.39-17.54-.18-1.39-.32-3.11-.01-4.67.87-4.37,3.26-8.09,3.41-12.56.27-2.82-.3-5.82-.36-8.64-.14-8.93,1.41-17.8,3.89-26.32-.88,8.74-1.89,17.47-1.43,26.21.17,2.95.73,5.97.49,8.95-.16,4.52-2.62,8.6-3.77,12.79-.29,1.33-.28,2.57-.2,4.11.17,5.88.4,11.86-.62,17.68h0Z"/><path class="cls-13" d="M81.43,18.27c-6.68-6.91-26.03-7.83-32.72-5.07-6.68,2.76-16.82-.23-16.82-.23,0,0,.46,3.69,5.99,5.76,0,0-8.29,2.88-14.86,10.14-5.88,6.49-4.72,14.05-8.41,20.27-3.69,6.22-6.91,8.75-6.91,8.75,0,0,5.53.23,7.37-1.61-3.69,5.3-4.15,11.98-.69,16.82s5.76,5.53,6.68,11.06c2.07-5.76,1.38-10.6,1.61-14.05,1.84,6.45,5.07,12.67,12.21,13.13-4.15-5.07-3.69-21.89,7.37-28.57,4.61.69,11.52,2.53,21.66.69-4.38,3.46-11.75,10.6-12.9,20.27,4.15-5.53,18.89-16.82,22.58-18.66,3.46,1.84,11.29,1.15,12.9.69,2.53,1.15,19.35,12.44,14.05,26.03,5.07-3.23,6.22-15.9-.46-25.11,8.06,8.29,10.14,15.9,7.14,23.5,5.76-5.76,4.15-19.35-.46-26.49,8.29,6.45,13.82,15.44,12.67,26.96,3.69-4.38,4.15-14.05,2.07-21.43,6.45,3.92,10.14,11.75,8.75,19.58,4.15-5.99,2.82-10.4,3.28-13.16,1.38,3.92,4.09,11.32,2.71,20.07,0,0,7.6-6.45,5.3-20.97,2.76-5.07,2.07-25.11-8.99-31.79,4.15.69,5.07-1.38,5.07-1.38,0,0-6.91-3-13.13-8.06-6.22-5.07-18.43-8.75-31.1-5.99,4.38-2.07,21.66-5.76,33.18,3.46,0,0-8.29-11.06-27.88-9.45,5.53-1.61,12.44-2.76,19.58-1.61-5.53-3.69-23.96-3.46-36.86,6.45Z"/><path d="M51.02,75.64c2.79-4.94,7.22-8.67,11.54-12.2,4.45-3.39,9.06-6.73,14.38-8.65-8.27,7.47-17.17,13.96-25.92,20.85h0Z"/><path d="M82.47,54.96c9.13,3.47,20.43,13.67,19.57,24.28-.19,1.59-.67,3.14-1.48,4.46,2.28-11.54-10.28-21.88-18.09-28.74h0Z"/><path d="M100.09,58.59c7.59,4.62,12.77,15.54,7.14,23.5,1.66-9.38-2.38-15.88-7.14-23.5h0Z"/><path d="M106.77,55.59c9.6,4.66,15.93,16.55,12.67,26.96-.78-10.9-5.43-19.02-12.67-26.96h0Z"/><path d="M34.89,83.24c-5.36-6.11-3.73-17.34.53-23.72,1.62-2.39,3.78-4.45,6.32-5.86,2.68-1.15,5.43-1.86,8.33-2.01,2.78-.15,5.95.47,7.86,2.62-3.5-2.28-7.84-1.35-11.54-.11-6.19,1.76-10.22,7.55-11.96,13.75-1.25,4.92-1.94,10.63.46,15.34h0Z"/><path d="M130.27,80.7c.9-2.1,1.67-4.22,1.9-6.46.35-2.38-.13-4.38.14-6.91.14-1.32,2.06-1.46,2.42-.21,1.24,3.19,2.26,6.61,2.6,10.12.34,3.48.09,7.07-1.07,10.37-.13-3.47-.42-6.78-1.14-10.03-.68-3.29-1.68-6.42-2.75-9.62,0,0,2.42-.21,2.42-.21-.27,2.06-.18,4.72-.86,6.86-.68,2.31-1.95,4.42-3.65,6.1h0Z"/><path d="M21.07,84.16c.87-4.8.33-9.22.34-14.14.06-1.45,2.14-1.66,2.49-.26,1.74,5.85,4.51,12.03,10.99,13.48-7.35.99-11.98-6.55-13.43-12.78,0,0,2.49-.26,2.49-.26-.21,4.7-.33,9.81-2.88,13.97h0Z"/><path class="cls-9" d="M57.93,44.76c-15.65-2.68-26.24,1.62-29.95,17.97.07-17.2,15.06-24.24,29.95-17.97h0Z"/><path class="cls-9" d="M82.12,29.79c-16.01-4.64-34.73-5.31-45.85,9.22,8.54-16.64,30.98-16.89,45.85-9.22h0Z"/><path class="cls-9" d="M24.75,47.76c-3.02,4.61-3.85,9.9-4.84,15.21-1.94-5.24-.4-12.5,4.84-15.21h0Z"/><path class="cls-9" d="M89.26,44.53c8.42-1.8,18.86.07,24.15,7.43.71,1.06,1.27,2.21,1.66,3.39-.78-.98-1.54-1.93-2.41-2.76-6.22-5.96-15.13-7.2-23.39-8.07h0Z"/><path class="cls-9" d="M104.01,38.54c11.16.63,21.75,8.35,25.51,18.92.58,1.47.86,3.05,1.22,4.58-.37-.7-.72-1.4-1.05-2.11-4.84-10.59-14.64-18.03-25.67-21.39h0Z"/><path class="cls-9" d="M99.63,28.87c8.39-4.14,20.51-3.35,26.18,4.85.35.53.69,1.06,1.01,1.6-.71-.58-1.44-1.23-2.1-1.84-7.02-5.7-16.48-5.87-25.08-4.61h0Z"/><path class="cls-9" d="M88.34,28.41c-4.34-4.05-9.36-7.13-14.85-9.28-2.54-.97-5.11-1.68-7.73-2.47,8.8-.68,18.41,3.79,22.58,11.75h0Z"/><path class="cls-9" d="M63.29,45.63c4-1.91,8.94-2.15,12.99-.2,1.41.62,2.64,1.58,3.77,2.62l-1.66.73c-.52-6.86,6.16-11.24,12.14-12.37,1.96-.43,3.95-.67,5.94-.63-6.65,1.7-16.22,4.64-16.13,12.92.05.84-1.05,1.32-1.64.75-1-.9-2-1.84-3.22-2.45-3.69-2.04-8.02-2.22-12.19-1.37h0Z"/><path class="cls-9" d="M78.36,48.89c-.73-4.96-2.9-10.2-7.15-13.17-1.41-1.03-3.1-1.6-4.81-2.01,1.74.25,3.52.66,5.08,1.59,4.82,2.77,7.58,8.01,8.87,13.29.27,1.38-1.83,1.71-1.99.31h0Z"/></svg>